<?xml version="1.0" standalone="no"?><!DOCTYPE svg PUBLIC "-//W3C//DTD SVG 1.1//EN" "http://www.w3.org/Graphics/SVG/1.1/DTD/svg11.dtd"><svg t="1531126080896" class="icon" style="" viewBox="0 0 1024 1024" version="1.1" xmlns="http://www.w3.org/2000/svg" p-id="4284" xmlns:xlink="http://www.w3.org/1999/xlink" width="24" height="24"><defs><style type="text/css"></style></defs><path d="M510.10048 67.60448c-248.13056 0-449.28 201.14944-449.28 449.28s201.14944 449.28 449.28 449.28 449.28-201.14944 449.28-449.28S758.23104 67.60448 510.10048 67.60448zM270.11072 386.35008c0-33.13664 26.86464-59.99616 60.00128-59.99616s59.99616 26.85952 59.99616 59.99616-26.8544 60.00128-59.99616 60.00128C296.97536 446.35136 270.11072 419.49184 270.11072 386.35008zM508.71808 735.0784c-83.34848 0-151.61856-64.57856-157.47072-146.45248 106.27072-1.73568 231.75168 0.6912 314.94656 0C660.34176 670.4896 592.07168 735.0784 508.71808 735.0784zM690.0992 446.35136c-33.14176 0-60.00128-26.85952-60.00128-60.00128 0-33.13664 26.85952-59.99616 60.00128-59.99616s59.99104 26.85952 59.99104 59.99616S723.24096 446.35136 690.0992 446.35136z" p-id="4285" fill="#8e8e93"></path></svg>