<?xml version="1.0" standalone="no"?><!DOCTYPE svg PUBLIC "-//W3C//DTD SVG 1.1//EN" "http://www.w3.org/Graphics/SVG/1.1/DTD/svg11.dtd"><svg t="1531209193601" class="icon" style="" viewBox="0 0 1024 1024" version="1.1" xmlns="http://www.w3.org/2000/svg" p-id="3448" xmlns:xlink="http://www.w3.org/1999/xlink" width="24" height="24"><defs><style type="text/css"></style></defs><path d="M293.842375 457.81696c0 11.419074 9.187243 20.13048 20.290115 20.13048l115.009384 0c11.103896 0 20.268626-8.711406 20.268626-20.13048 0-11.17041-9.16473-20.866237-20.268626-20.866237l-78.531588 0 95.41-155.991774c1.941212-3.62762 3.38919-7.500834 3.38919-12.114922 0-11.17041-9.16473-20.126386-20.268626-20.126386l-115.009384 0c-11.102872 0-20.290115 8.955976-20.290115 20.126386 0 11.151991 9.187243 20.599154 20.290115 20.599154l78.509075 0-94.942349 156.730601C295.291376 449.332728 293.842375 453.452559 293.842375 457.81696L293.842375 457.81696zM660.09799 448.840518 660.09799 448.840518c0-11.149944-9.208732-20.37505-20.781302-20.37505-11.103896 0-20.312628 9.225105-20.312628 20.37505l0 128.092353-44.439118-44.151569c-7.981788-8.507768-20.781302-8.507768-28.51852 0-8.205892 7.523347-8.449439 20.599154 0 28.637224l77.304643 77.850066 0.490164 0.49221c3.857864 4.366448 9.187243 7.02909 15.474436 7.02909 6.265704 0 12.062733-2.662643 15.451924-7.02909l0.468674-0.49221 77.550237-77.850066c8.472975-8.03807 8.472975-21.113877 0-28.637224-7.960299-8.507768-21.026896-8.507768-28.741601 0l-43.947931 44.151569L660.096966 448.840518 660.09799 448.840518zM889.091404 323.657424 889.091404 323.657424 643.174552 76.224032c-6.288217-6.313799-14.96176-9.694803-24.393573-9.694803L216.046544 66.529229c-25.106818 0-47.827285 9.694803-64.23907 26.442232-16.923438 16.479323-27.068496 39.292911-27.068496 64.528666l0 705.668884c0 25.25622 10.145058 48.047296 27.068496 65.020876l0-0.469698 0 0.469698c16.410762 16.008602 39.132252 26.442232 64.23907 26.442232l591.882352 0c24.393573 0 46.86947-9.448186 63.301721-25.952068l0.713244-0.491187 0.490164-0.469698c16.656355-16.503882 26.824949-39.294958 26.824949-64.551178L899.258974 347.681584C899.259998 338.701049 895.625214 329.969177 889.091404 323.657424L889.091404 323.657424zM639.316687 169.143305 639.316687 169.143305l156.995637 157.424402L676.018587 326.567707c-10.145058 0-19.309788-3.381004-26.088168-10.187013l-0.468674-1.432629c-6.288217-6.313799-10.145058-15.068184-10.145058-24.741497L639.316687 169.143305 639.316687 169.143305zM831.119061 863.169011 831.119061 863.169011c0 6.313799-2.407839 12.135388-6.777357 16.253172l0 0.24764c-4.349051 3.873214-10.123568 6.313799-16.411785 6.313799L216.046544 885.983623c-6.288217 0-12.085246-2.440585-16.656355-6.562463-3.879354-4.117784-6.532787-9.939373-6.532787-16.253172L192.857403 157.500127c0-6.313799 2.653433-12.112875 6.532787-16.279778 4.571109-3.871167 10.368138-6.782473 16.656355-6.782473l382.666376 0 0 155.76767c0 20.823258 7.960299 39.518039 21.248953 53.601802l1.472538 1.679245c13.778818 13.837146 33.333176 22.344914 54.583153 22.344914l155.100474 0L831.118038 863.169011 831.119061 863.169011zM378.395096 543.931247 378.395096 543.931247c-10.636245-4.142343-22.231327 1.455141-26.088168 12.606109l-66.201771 188.502212c-3.857864 10.680247 1.940189 22.323425 12.308327 25.950022 10.903328 3.648087 22.49841-1.925862 25.865087-12.112875l12.55392-34.92851 69.589938 0 12.55392 34.92851c3.388167 10.188037 14.983249 15.760962 25.841551 12.112875 10.390651-3.62762 16.210193-15.269775 12.33084-25.950022l-66.669422-188.502212C389.029294 550.736233 384.681266 545.633005 378.395096 543.931247L378.395096 543.931247zM351.324554 682.21266 351.324554 682.21266l20.290115-57.251935 20.312628 57.251935L351.324554 682.21266 351.324554 682.21266z" p-id="3449" fill="#515151"></path></svg>