<?xml version="1.0" standalone="no"?><!DOCTYPE svg PUBLIC "-//W3C//DTD SVG 1.1//EN" "http://www.w3.org/Graphics/SVG/1.1/DTD/svg11.dtd"><svg t="1531201225760" class="icon" style="" viewBox="0 0 1024 1024" version="1.1" xmlns="http://www.w3.org/2000/svg" p-id="31682" xmlns:xlink="http://www.w3.org/1999/xlink" width="64" height="64"><defs><style type="text/css"></style></defs><path d="M693.953052 432.914804l44.173059 0 0-17.990746-44.173059 0L693.953052 432.914804zM461.146798 558.735417l-17.750269 0c0-50.826596 50.263777-87.639013 84.123956-87.639013l0 17.990746C501.396501 489.087151 461.159078 519.005554 461.146798 558.735417zM527.520485 673.333432c-62.330604 0-113.065102-51.420113-113.065102-114.596991s50.734498-114.599038 113.065102-114.599038c62.33265 0 113.066125 51.42216 113.066125 114.599038S589.853136 673.333432 527.520485 673.333432zM571.866483 302.585503c17.35118 0.007163 33.56956 10.871605 41.243333 27.668153l19.624966 39.724747 105.391329 0c25.187659 0 42.119283 17.160845 42.119283 42.690288l0 224.684272c0 25.527396-16.924461 42.684148-42.119283 42.690288l-77.564563 0 0-17.989723 77.505211 0c15.46932-0.00614 24.370037-8.972349 24.370037-24.700565L762.436796 412.666644c0-15.670911-8.841366-24.694425-24.370037-24.700565L627.226325 387.966079c-3.346211-0.005117-6.386454-1.962701-7.907087-4.984524l-22.143323-44.950771c-4.863774-10.56666-14.996552-17.515932-25.309432-17.515932l-77.68122 0c-10.308787 0-20.444635 6.949272-25.188682 17.278525l-22.262026 45.188178c-1.464351 3.084245-4.567016 4.984524-7.907087 4.984524L316.915883 387.966079c-15.467273 0-24.370037 8.965186-24.370037 24.700565l0 224.684272c0 15.673981 8.845459 24.700565 24.370037 24.700565l77.56354 0 0 17.989723-77.56354 0c-25.188682 0-42.120306-17.157775-42.120306-42.690288L274.795577 412.666644c0-25.524327 16.925485-42.684148 42.120306-42.690288L433.320033 369.976356l19.74367-39.960107c7.611352-16.561188 23.830755-27.424606 41.181935-27.431769L571.866483 302.585503 571.866483 302.585503zM527.520485 426.14461c-72.114434 0-130.815371 59.497069-130.815371 132.590807 0 73.092715 58.700937 132.586714 130.815371 132.586714 72.116481 0 130.812301-59.492976 130.812301-132.586714S599.636966 426.14461 527.520485 426.14461z" p-id="31683" fill="#8a8a8a"></path></svg>