<?xml version="1.0" standalone="no"?><!DOCTYPE svg PUBLIC "-//W3C//DTD SVG 1.1//EN" "http://www.w3.org/Graphics/SVG/1.1/DTD/svg11.dtd"><svg t="1531815101849" class="icon" style="" viewBox="0 0 1024 1024" version="1.1" xmlns="http://www.w3.org/2000/svg" p-id="7653" xmlns:xlink="http://www.w3.org/1999/xlink" width="24" height="24"><defs><style type="text/css"></style></defs><path d="M512.445138 64.48364c-247.369947 0-448.0055 200.592574-448.0055 448.0055 0 247.426229 200.608947 448.0055 448.0055 448.0055 247.426229 0 448.0055-200.536292 448.0055-448.0055C960.450638 265.119193 759.871367 64.48364 512.445138 64.48364L512.445138 64.48364zM696.116321 636.821867c7.634888 7.588839 12.326746 18.058284 12.326746 29.66974 0 23.218818-18.777669 41.996486-41.996486 41.996486-11.525498 0-22.080901-4.691859-29.66974-12.326746L512.445138 571.899228 388.19837 696.203302c-7.643074 7.630794-18.144242 12.326746-29.754674 12.326746-23.149233 0-41.966811-18.777669-41.966811-42.013883 0-11.606339 4.692882-22.051225 12.284791-29.639041l124.316354-124.387985-124.290771-124.289748c-7.605212-7.618515-12.283768-18.117636-12.283768-29.711695 0-23.192212 18.804275-41.996486 41.996486-41.996486 11.568477 0 22.067598 4.679579 29.686113 12.283768l124.246769 124.316354 124.329656-124.285654c7.591909-7.591909 18.147312-12.284791 29.67281-12.284791 23.175839 0 41.996486 18.774599 41.996486 41.996486 0 11.607362-4.695952 22.107507-12.326746 29.711695L571.855226 512.475837 696.116321 636.821867 696.116321 636.821867zM696.116321 636.821867" p-id="7654" fill="#fc2903"></path></svg>