<?xml version="1.0" standalone="no"?><!DOCTYPE svg PUBLIC "-//W3C//DTD SVG 1.1//EN" "http://www.w3.org/Graphics/SVG/1.1/DTD/svg11.dtd"><svg t="1534312399088" class="icon" style="" viewBox="0 0 1024 1024" version="1.1" xmlns="http://www.w3.org/2000/svg" p-id="43563" xmlns:xlink="http://www.w3.org/1999/xlink" width="21" height="21"><defs><style type="text/css"></style></defs><path d="M169.71875 899.9375c-11.71875 0-23.34375-4.5-32.25-13.40625-17.8125-17.8125-17.8125-46.6875 0-64.5l684.46875-684.46875c17.8125-17.8125 46.6875-17.8125 64.5 0s17.8125 46.6875 0 64.5L201.96875 886.53125c-8.90625 8.90625-20.53125 13.40625-32.25 13.40625z" fill="#ffffff" p-id="43564"></path><path d="M854.28125 899.9375c-11.71875 0-23.34375-4.5-32.25-13.40625L137.46875 201.96875c-17.8125-17.8125-17.8125-46.6875 0-64.5s46.6875-17.8125 64.5 0l684.46875 684.46875c17.8125 17.8125 17.8125 46.6875 0 64.5-8.8125 9-20.53125 13.5-32.15625 13.5z" fill="#ffffff" p-id="43565"></path></svg>