<?xml version="1.0" standalone="no"?><!DOCTYPE svg PUBLIC "-//W3C//DTD SVG 1.1//EN" "http://www.w3.org/Graphics/SVG/1.1/DTD/svg11.dtd"><svg t="1531209299864" class="icon" style="" viewBox="0 0 1024 1024" version="1.1" xmlns="http://www.w3.org/2000/svg" p-id="6854" xmlns:xlink="http://www.w3.org/1999/xlink" width="24" height="24"><defs><style type="text/css"></style></defs><path d="M716.536 681.293c23.936 0 46.237 4.534 66.91 13.6 20.671 9.066 38.622 21.396 53.854 36.991 15.23 15.594 27.379 33.727 36.446 54.397 9.066 20.671 13.6 42.975 13.599 66.909 0 23.936-4.533 46.238-13.599 66.91-9.066 20.671-21.216 38.622-36.446 53.854-15.232 15.231-33.184 27.38-53.854 36.447-20.671 9.065-42.975 13.599-66.91 13.599-23.934 0-46.237-4.533-66.908-13.599-20.672-9.067-38.805-21.216-54.398-36.447-15.595-15.231-27.925-33.183-36.99-53.854-9.067-20.672-13.601-42.975-13.601-66.91 0-7.252 0.362-13.961 1.088-20.126 0.726-6.166 1.814-12.513 3.265-19.04L377.094 669.326c-10.154 5.077-21.034 8.704-32.639 10.879-11.604 2.176-23.572 3.264-35.903 3.264-23.935 0-46.238-4.532-66.909-13.599s-38.804-21.215-54.397-36.448c-15.595-15.23-27.925-33.181-36.991-53.853-9.066-20.671-13.599-42.974-13.599-66.909s4.532-46.239 13.599-66.91 21.396-38.803 36.991-54.398c15.594-15.593 33.727-27.924 54.397-36.99s42.975-13.6 66.909-13.6c26.837 0 52.585 6.166 77.246 18.495l163.193-152.314c-2.901-9.429-4.353-21.033-4.353-34.814 0-23.935 4.533-46.238 13.601-66.91 9.065-20.671 21.396-38.623 36.99-53.854 15.594-15.231 33.727-27.38 54.398-36.446 20.671-9.066 42.975-13.6 66.908-13.6 23.936 0 46.237 4.534 66.91 13.6 20.671 9.066 38.622 21.215 53.854 36.446 15.23 15.231 27.379 33.183 36.446 53.854 9.066 20.671 13.6 42.975 13.599 66.91 0 23.936-4.533 46.238-13.599 66.909-9.066 20.672-21.216 38.804-36.446 54.398-15.232 15.594-33.184 27.924-53.854 36.99s-42.975 13.6-66.91 13.6c-16.683 0-32.457-2.176-47.325-6.528-14.869-4.352-28.469-10.516-40.798-18.495L472.834 463.702c4.353 16.682 6.527 33.001 6.527 48.958 0 20.309-3.264 39.166-9.792 56.574L629.5 704.14c13.055-7.252 26.837-12.872 41.343-16.862C685.349 683.288 700.58 681.293 716.536 681.293L716.536 681.293z" p-id="6855" fill="#515151"></path></svg>