<?xml version="1.0" standalone="no"?><!DOCTYPE svg PUBLIC "-//W3C//DTD SVG 1.1//EN" "http://www.w3.org/Graphics/SVG/1.1/DTD/svg11.dtd"><svg t="1531106933890" class="icon" style="" viewBox="0 0 1024 1024" version="1.1" xmlns="http://www.w3.org/2000/svg" p-id="14603" xmlns:xlink="http://www.w3.org/1999/xlink" width="24" height="24"><defs><style type="text/css"></style></defs><path d="M661.325957 42.667775v234.655368h234.655368z" p-id="14604" fill="#1296db"></path><path d="M597.329411 298.654984V42.667775H192.015222c-35.344996 0-63.996546 28.65462-63.996547 63.996547v810.627354c0 35.341926 28.652574 63.996546 63.996547 63.996547h639.969556c35.344996 0 63.996546-28.65462 63.996547-63.996547V341.319689H639.994116c-23.562649 0-42.664705-19.10308-42.664705-42.664705z m-362.649484 341.317643c0-11.780301 9.550517-21.331841 21.331841-21.331841h170.658821c11.782348 0 21.331841 9.55154 21.331841 21.331841v21.331841c0 11.780301-9.550517 21.331841-21.331841 21.331841H256.011768c-11.782348 0-21.331841-9.55154-21.331841-21.331841v-21.331841z m341.316619 149.325957c0 11.780301-9.550517 21.331841-21.331841 21.331841h-298.651914c-11.782348 0-21.331841-9.55154-21.331841-21.331841v-21.331841c0-11.780301 9.550517-21.331841 21.331841-21.331841h298.651914c11.782348 0 21.331841 9.55154 21.331841 21.331841v21.331841z" p-id="14605" fill="#1296db"></path></svg>