<?xml version="1.0" standalone="no"?><!DOCTYPE svg PUBLIC "-//W3C//DTD SVG 1.1//EN" "http://www.w3.org/Graphics/SVG/1.1/DTD/svg11.dtd"><svg t="1531106701998" class="icon" style="" viewBox="0 0 1024 1024" version="1.1" xmlns="http://www.w3.org/2000/svg" p-id="8698" xmlns:xlink="http://www.w3.org/1999/xlink" width="24" height="24"><defs><style type="text/css"></style></defs><path d="M944.384219 876.011504l-71.000054-71.003124c22.017456-30.574343 35.30918-67.788919 35.30918-108.336404 0-102.776781-83.33908-186.113815-186.140421-186.113815-102.831017 0-186.151677 83.347267-186.151677 186.113815 0 102.823853 83.320661 186.139397 186.151677 186.139397 28.307719 0 54.867632-6.800893 78.905094-18.11866l77.129658 77.136821c18.178011 18.179035 47.651276 18.179035 65.792449 0C962.584744 923.633105 962.584744 894.177236 944.384219 876.011504zM722.545762 808.860105c-61.943794 0-112.195292-50.211589-112.195292-112.197338 0-61.943794 50.252521-112.159476 112.195292-112.159476 61.942771 0 112.191198 50.215682 112.191198 112.159476C834.734914 758.645446 784.486486 808.860105 722.545762 808.860105zM479.552495 763.579829c2.281973 10.809183 5.991458 22.468734 11.124362 34.984792 5.134951 12.518105 12.551874 25.172309 22.2477 37.96773 9.704013 12.798491 22.249747 25.460882 37.652552 37.9708 15.404852 12.510942 34.517141 27.190269 57.334823 37.996382-15.403828 3.986801-37.116339 5.101181-57.08309 7.377014-45.580105 5.186116-108.506273 7.53358-145.872299 7.523347-16.543791-0.004093-51.04456 0.162706-75.051323-0.698918-34.393321-1.234107-80.449263-2.917446-115.998921-7.302313-35.742039-3.787256-85.798085-11.104919-108.87978-18.772552-14.519692-4.523013-20.841677-10.952446-23.085788-13.505595-5.935176-6.073322-12.143575-19.158339-15.280008-42.473347-3.137457-23.331381-1.856277-53.190433 3.849678-89.597621 3.422959-21.043269 11.980869-36.97103 25.673729-47.777143 13.690814-10.80509 29.523407-19.479657 47.492664-26.021653 17.969257-6.548136 36.796044-12.519128 56.477292-17.918092 19.684318-5.408173 37.22481-12.94073 52.628638-22.61302 11.979846-7.397481 21.107737-13.506619 27.381627-20.334117 6.27696-6.817266 10.69969-14.646582 13.264095-21.474081 2.568499-6.825452 3.712555-12.932544 3.853771-20.331048 0.160659-8.464789-0.064468-12.119015-0.635473-20.651342-1.14201-13.651928-5.782703-25.400506-13.485129-32.801057-7.702426-7.387247-16.401552-15.071254-26.101471-23.035646-4.563946-3.983731-8.556886-9.528004-11.977799-16.637935-3.423983-7.108908-6.564509-14.358009-9.41544-21.756513-2.855024-8.531304-5.704932-17.347087-8.55791-26.449395-3.992941-1.137916-7.988951-3.13234-11.979846-5.975085-3.423983-2.840698-6.991228-6.822382-10.697643-11.94403-3.709485-5.120624-6.990205-12.509918-9.841136-22.183232-2.851954-9.673313-3.850701-18.348903-2.995217-26.021653 0.856507-7.682983 2.426259-14.652721 4.707209-20.909216 2.281973-6.825452 5.705955-13.081946 10.270924-18.766412 0-21.61632 1.140986-43.234687 3.423983-64.84896 2.28095-18.205641 6.27389-37.683251 11.979846-58.44511 5.705955-20.760836 14.547321-39.395242 26.527167-55.884798 10.840906-15.359826 22.820752-28.016077 35.94363-37.9708 13.120832-9.957793 26.527167-17.775852 40.219004-23.465434 13.69286-5.687536 27.52796-9.668197 41.502229-11.94403 13.977339-2.27481 27.242458-3.417843 39.792285-3.417843 16.546861 0 32.376385 1.995447 47.492664 5.980201 15.119349 3.979638 29.093619 9.102309 41.933041 15.357779 12.836353 6.254447 24.387433 13.367449 34.655288 21.326724 10.271948 7.968485 18.539238 15.928784 24.819269 23.889083 14.261818 18.204617 24.958438 38.255279 32.088836 60.156078 7.137561 21.896706 12.124132 42.519396 14.971993 61.856813 2.858094 22.756283 3.998057 45.508473 3.431146 68.258617 3.989871 2.846838 7.133468 6.54609 9.41237 11.092639 2.28095 3.988848 4.137227 9.101285 5.561669 15.357779 1.425466 6.260587 1.571798 13.938454 0.428765 23.039739-1.139963 12.512988-3.562129 22.328541-7.27366 29.441543-3.708462 7.106862-7.842619 12.653181-12.406564 16.631796-5.13802 4.552689-10.555403 7.67889-16.263405 9.388834-2.848884 9.103332-5.700839 17.918092-8.553817 26.449395-2.856048 7.398504-5.988388 14.643512-9.41544 21.756513-3.418866 7.109931-7.40976 12.654204-11.975752 16.637935-5.13802 4.557806-9.127891 8.965186-11.981892 13.229303-2.852978 4.26514-5.135974 8.674567-6.847965 13.226233-1.707898 4.547573-3.563152 9.518794-5.558599 14.929014-1.99647 5.398964-4.994758 11.234879-8.985652 17.488303-13.118785 20.48352-23.39278 37.806047-30.809703 56.012711-7.414877 18.204617-12.549827 34.689057-15.402805 51.466162-2.849908 16.777105-3.707438 32.991392-2.566452 48.634674 1.139963 15.642259 3.420913 31.144324 6.844895 46.500057L479.552495 763.579829z" p-id="8699" fill="#0e932e"></path></svg>