<?xml version="1.0" standalone="no"?><!DOCTYPE svg PUBLIC "-//W3C//DTD SVG 1.1//EN" "http://www.w3.org/Graphics/SVG/1.1/DTD/svg11.dtd"><svg t="1531209317218" class="icon" style="" viewBox="0 0 1024 1024" version="1.1" xmlns="http://www.w3.org/2000/svg" p-id="7669" xmlns:xlink="http://www.w3.org/1999/xlink" width="24" height="24"><defs><style type="text/css"></style></defs><path d="M651.163 230.694q26.919 0 48.006 11.664t36.341 28.714 23.33 36.789 8.076 34.995v506.979q0 26.022-10.319 46.66t-26.919 34.995-37.238 22.433-41.276 8.076h-442.373q-17.049 0-37.238-9.87t-37.687-26.022-29.162-37.238-11.664-42.622v-499.801q0-18.844 8.973-39.033t23.33-37.238 33.201-28.266 39.481-11.216h453.141zM598.222 791.512q23.33 0 39.93-16.151t16.6-39.481-16.6-39.931-39.93-16.6h-336.49q-23.33 0-39.93 16.6t-16.6 39.931 16.6 39.481 39.93 16.151h336.49zM598.222 567.185q23.33 0 39.93-16.151t16.6-39.481-16.6-39.931-39.93-16.6h-336.49q-23.33 0-39.93 16.6t-16.6 39.931 16.6 39.481 39.93 16.151h336.49zM757.045 62q38.584 0 70.887 22.882t56.082 56.53 37.238 72.682 13.46 71.336v476.471q0 18.844-11.216 34.546t-27.368 26.919-34.995 17.947-34.995 6.729h-3.59v-535.693q-7.178-61.914-38.584-95.114t-83.45-43.071h-437.886q0.897-1.794 0.897-6.281 0-17.947 10.767-36.789t28.266-34.098 39.033-25.124 43.071-9.87h372.383z" p-id="7670" fill="#515151"></path></svg>