<?xml version="1.0" standalone="no"?><!DOCTYPE svg PUBLIC "-//W3C//DTD SVG 1.1//EN" "http://www.w3.org/Graphics/SVG/1.1/DTD/svg11.dtd"><svg t="1531213257724" class="icon" style="" viewBox="0 0 1024 1024" version="1.1" xmlns="http://www.w3.org/2000/svg" p-id="14542" xmlns:xlink="http://www.w3.org/1999/xlink" width="24" height="24"><defs><style type="text/css"></style></defs><path d="M934.4 719.2v-0.8c-0.8-0.8-0.8-1.6-1.6-1.6-3.2-4.8-6.4-9.6-10.4-14.4-57.6-80-108.8-176.8-108.8-302.4 0-151.2-91.2-276.8-228-309.6v-4.8c0-39.2-32-72-72-72-39.2 0-72 32-72 72v4.8c-136.8 32.8-228 158.4-228 309.6 0 134.4-58.4 235.2-120.8 317.6L92 720c-7.2 12.8-11.2 27.2-11.2 40.8v2.4c3.2 96.8 195.2 136 432.8 136 239.2 0 432.8-39.2 432.8-137.6 0-15.2-4-28.8-12-42.4zM375.2 928c32 48.8 87.2 80.8 150.4 80.8 64 0 120-33.6 151.2-83.2-50.4 4.8-105.6 7.2-163.2 7.2-48.8 0.8-95.2-0.8-138.4-4.8z m0 0" fill="#d81e06" p-id="14543"></path></svg>