<?xml version="1.0" standalone="no"?><!DOCTYPE svg PUBLIC "-//W3C//DTD SVG 1.1//EN" "http://www.w3.org/Graphics/SVG/1.1/DTD/svg11.dtd"><svg t="1531186847520" class="icon" style="" viewBox="0 0 1030 1024" version="1.1" xmlns="http://www.w3.org/2000/svg" p-id="6749" xmlns:xlink="http://www.w3.org/1999/xlink" width="24.140625" height="24"><defs><style type="text/css"></style></defs><path d="M478.346 628.498q-1.792 9.858-4.481 15.235t-12.546 11.65q-23.3 14.339-50.184 23.3t-51.528 19.715-43.015 28.228-22.851 49.735q-1.792 9.858-2.24 19.267t-1.344 17.474q-0.896 1.792-1.792 3.136t-1.792 3.136q-34.95-2.689-70.795-6.274t-65.866-8.066-50.632-8.961-25.989-8.961q-8.066-6.274-12.098-37.638t3.136-81.549q4.481-27.781 22.851-42.567t43.463-23.3 51.528-15.683 47.048-19.715q16.13-10.754 24.644-19.715t12.098-18.371 3.585-19.267-0.896-21.508q-1.792-17.923-12.098-28.228t-22.851-21.059q-7.169-4.481-12.098-14.339t-8.513-19.715q-3.585-10.754-7.169-24.196-5.376-1.792-10.754-5.376-4.481-3.585-9.41-10.754t-9.41-19.715-3.585-23.748 4.481-19.267q3.585-9.858 9.858-16.13-0.896-28.676 2.689-58.249 3.585-24.196 11.65-51.977t24.196-50.184q14.339-21.508 32.261-34.95t36.294-21.059 37.189-10.305 36.743-2.689q44.807 0 80.653 18.82t53.768 40.327q11.65 15.235 14.786 28.228t8.513 30.020q-17.027 9.858-36.294 29.125t-33.605 38.982q-17.923 25.092-26.884 55.56t-13.443 56.458q-4.481 31.365-4.481 62.729-7.169 8.066-10.754 17.923-3.585 8.961-4.481 21.059t3.585 26.435q4.481 15.235 9.858 23.3t9.858 12.546q5.376 5.376 10.754 7.169 3.585 14.339 7.169 26.884 3.585 10.754 8.513 21.955t12.098 16.579q6.274 5.376 9.858 8.961t5.825 6.721 2.689 8.513 2.241 14.339zM955.988 793.388q3.585 12.546 5.825 30.469t2.24 36.294-2.689 34.501-8.066 24.196q-3.585 5.376-21.059 10.754t-43.463 9.858-57.353 8.513-63.178 6.721-61.385 4.481-51.977 1.792-51.528-1.792-60.489-4.481-61.834-5.825-56.009-7.169-43.014-8.066-21.955-7.617q-7.169-6.274-11.65-37.638t2.689-80.653q4.481-28.676 22.851-43.015t43.463-23.3 51.528-15.683 47.048-20.164q16.13-10.754 24.644-19.715t12.546-17.923 4.033-18.819-0.896-22.404q-1.792-17.923-12.546-28.228t-23.3-20.164q-6.274-5.376-11.202-15.235t-8.513-19.715q-3.585-10.754-7.169-24.196-5.376-1.792-10.754-5.376-4.481-3.585-9.41-10.754t-9.41-19.715-3.585-23.748 4.481-18.371q3.585-8.961 9.858-16.13-0.896-28.676 2.689-58.249 3.585-25.092 11.202-52.424t23.748-50.632q14.339-21.508 32.261-34.95t36.743-21.059 37.638-10.305 35.845-2.689q45.704 0 81.549 18.819t52.873 40.327q19.715 24.196 29.125 54.217t13.89 56.009q4.481 30.469 3.585 60.938 4.481 3.585 8.066 9.858 2.689 5.376 4.929 13.89t0.449 21.059q-1.792 16.13-7.169 25.989t-10.754 15.235q-6.274 6.274-14.339 8.066-3.585 13.443-7.169 24.196-3.585 9.858-8.961 19.715t-11.65 14.339q-7.169 6.274-12.994 10.754t-10.305 9.41-7.617 11.202-4.929 15.235q-1.792 11.65-1.344 23.748t5.825 23.748 17.474 22.404 33.605 18.819q18.819 8.066 41.67 13.89t43.911 13.89 37.638 20.611 23.748 32.261z" p-id="6750" fill="#1296db"></path></svg>