<?xml version="1.0" standalone="no"?><!DOCTYPE svg PUBLIC "-//W3C//DTD SVG 1.1//EN" "http://www.w3.org/Graphics/SVG/1.1/DTD/svg11.dtd"><svg t="1531815037534" class="icon" style="" viewBox="0 0 1024 1024" version="1.1" xmlns="http://www.w3.org/2000/svg" p-id="4539" xmlns:xlink="http://www.w3.org/1999/xlink" width="27" height="27"><defs><style type="text/css"></style></defs><path d="M509.75282 130.054031c-211.659631 0-381.943922 170.284291-381.943922 381.943922 0 211.663724 170.284291 381.946992 381.943922 381.946992 211.663724 0 381.948015-170.284291 381.948015-381.946992C891.700835 300.338323 721.416544 130.054031 509.75282 130.054031L509.75282 130.054031zM388.806213 699.787944 388.806213 324.212056l324.650031 187.785897L388.806213 699.787944 388.806213 699.787944zM388.806213 699.787944" p-id="4540" fill="#2c2c2c"></path><path d="M440.566064 567.543014l2.046612 0 0 10.233062-2.046612 0 0-10.233062Z" p-id="4541" fill="#2c2c2c"></path><path d="M435.449533 567.543014l2.046612 0 0 10.233062-2.046612 0 0-10.233062Z" p-id="4542" fill="#2c2c2c"></path></svg>