<?xml version="1.0" standalone="no"?><!DOCTYPE svg PUBLIC "-//W3C//DTD SVG 1.1//EN" "http://www.w3.org/Graphics/SVG/1.1/DTD/svg11.dtd"><svg t="1531985909510" class="icon" style="" viewBox="0 0 1024 1024" version="1.1" xmlns="http://www.w3.org/2000/svg" p-id="2715" xmlns:xlink="http://www.w3.org/1999/xlink" width="24" height="24"><defs><style type="text/css"></style></defs><path d="M512 0C229.229714 0 0 229.229714 0 512 0 794.733714 229.229714 1024 512 1024 794.770286 1024 1024 794.733714 1024 512 1024 229.229714 794.770286 0 512 0L512 0 512 0ZM738.852571 637.074286C738.852571 637.074286 722.651429 681.289143 692.918857 721.005714 692.918857 721.005714 746.020571 739.072 741.558857 785.993143 741.558857 785.993143 743.314286 838.326857 628.077714 834.706286 628.077714 834.706286 546.998857 828.416 522.715429 794.112L501.284571 794.112C476.964571 828.416 395.922286 834.706286 395.922286 834.706286 280.649143 838.326857 282.441143 785.993143 282.441143 785.993143 277.942857 739.072 331.081143 721.005714 331.081143 721.005714 301.385143 681.289143 285.184 637.074286 285.184 637.074286 213.101714 753.517714 220.306286 620.8 220.306286 620.8 233.837714 542.281143 290.56 490.861714 290.56 490.861714 282.441143 419.510857 312.173714 406.893714 312.173714 406.893714 318.390857 186.294857 508.013714 190.134857 512 190.244571 515.986286 190.134857 705.572571 186.294857 711.826286 406.893714 711.826286 406.893714 741.522286 419.510857 733.44 490.825143 733.44 490.825143 790.162286 542.281143 803.693714 620.8L803.693714 620.8C803.693714 620.8 810.861714 753.517714 738.852571 637.074286L738.852571 637.074286 738.852571 637.074286Z" p-id="2716" fill="#1196db"></path></svg>