<?xml version="1.0" standalone="no"?><!DOCTYPE svg PUBLIC "-//W3C//DTD SVG 1.1//EN" "http://www.w3.org/Graphics/SVG/1.1/DTD/svg11.dtd"><svg t="1531211706034" class="icon" style="" viewBox="0 0 1024 1024" version="1.1" xmlns="http://www.w3.org/2000/svg" p-id="10676" xmlns:xlink="http://www.w3.org/1999/xlink" width="24" height="24"><defs><style type="text/css"></style></defs><path d="M512.531608 64.764026c-246.703775 0-447.417099 200.711278-447.417099 447.423239 0 246.704798 200.712301 447.422216 447.417099 447.422216 246.711961 0 447.422216-200.717418 447.422216-447.422216C959.954847 265.475304 759.243569 64.764026 512.531608 64.764026zM693.205527 531.915585 532.261974 531.915585l0 160.944576c0 10.905374-8.836249 19.72832-19.729344 19.72832-10.892071 0-19.72832-8.822946-19.72832-19.72832L492.804311 531.915585 331.858712 531.915585c-10.886955 0-19.72832-8.823969-19.72832-19.72832 0-10.893094 8.841366-19.73446 19.72832-19.73446l160.944576 0L492.803287 331.513346c0-10.904351 8.836249-19.72832 19.72832-19.72832 10.894118 0 19.729344 8.823969 19.729344 19.72832l0 160.939459 160.943552 0c10.887978 0 19.72832 8.841366 19.72832 19.73446C712.933847 523.091616 704.093505 531.915585 693.205527 531.915585z" p-id="10677" fill="#8e8e93"></path></svg>