<?xml version="1.0" standalone="no"?><!DOCTYPE svg PUBLIC "-//W3C//DTD SVG 1.1//EN" "http://www.w3.org/Graphics/SVG/1.1/DTD/svg11.dtd"><svg t="1530693922687" class="icon" style="" viewBox="0 0 1024 1024" version="1.1" xmlns="http://www.w3.org/2000/svg" p-id="26270" xmlns:xlink="http://www.w3.org/1999/xlink" width="30" height="30"><defs><style type="text/css"></style></defs><path d="M968.842667 908.501333L726.698667 666.357333A382.293333 382.293333 0 0 0 810.666667 426.666667C810.666667 214.592 638.752 42.666667 426.666667 42.666667 214.592 42.666667 42.666667 214.592 42.666667 426.666667s171.925333 384 384 384c90.666667 0 173.994667-31.413333 239.690666-83.978667l242.144 242.144a42.666667 42.666667 0 0 0 60.341334-60.330667zM426.666667 725.333333c-164.949333 0-298.666667-133.717333-298.666667-298.666666s133.717333-298.666667 298.666667-298.666667c164.96 0 298.666667 133.717333 298.666666 298.666667S591.626667 725.333333 426.666667 725.333333z" p-id="26271" fill="#ffffff"></path></svg>