<?xml version="1.0" standalone="no"?><!DOCTYPE svg PUBLIC "-//W3C//DTD SVG 1.1//EN" "http://www.w3.org/Graphics/SVG/1.1/DTD/svg11.dtd"><svg t="1531186990386" class="icon" style="" viewBox="0 0 1024 1024" version="1.1" xmlns="http://www.w3.org/2000/svg" p-id="11922" xmlns:xlink="http://www.w3.org/1999/xlink" width="24" height="24"><defs><style type="text/css"></style></defs><path d="M1024 384c0 0-115.2 153.6-262.4 268.8 0 0 0 0 0 0s0 0 0 0c0 0 0 0 0 0C819.2 851.2 832 1024 832 1024l-320-192c0 0 0 0 0 0 0 0 0 0 0 0-153.6 108.8-320 192-320 192s12.8-172.8 70.4-371.2c0 0 0 0 0 0s0 0 0 0c0 0 0 0 0 0C115.2 544 0 384 0 384l352-32L512 0l160 352L1024 384z" p-id="11923" fill="#e16531"></path></svg>