<?xml version="1.0" standalone="no"?><!DOCTYPE svg PUBLIC "-//W3C//DTD SVG 1.1//EN" "http://www.w3.org/Graphics/SVG/1.1/DTD/svg11.dtd"><svg t="1531815062926" class="icon" style="" viewBox="0 0 1024 1024" version="1.1" xmlns="http://www.w3.org/2000/svg" p-id="6366" xmlns:xlink="http://www.w3.org/1999/xlink" width="21" height="21"><defs><style type="text/css"></style></defs><path d="M512 0C230.075949 0 0 230.075949 0 512s230.126582 512 512 512S1024.050633 793.924051 1024.050633 512.037975 793.974684 0 512 0z m-58.582278 674.063291c0 21.670886-17.227848 45.063291-45.063292 45.063291-26.582278 0-45.063291-18.531646-45.063291-45.063291V333.772152c0-21.670886 17.227848-45.063291 45.063291-45.063291 26.582278 0 45.063291 18.531646 45.063292 45.063291z m187.949367 0c0 21.670886-17.227848 45.063291-45.063292 45.063291-26.582278 0-45.063291-18.531646-45.063291-45.063291V333.772152c0-21.670886 17.227848-45.063291 45.063291-45.063291 26.582278 0 45.063291 18.531646 45.063292 45.063291z" fill="#2c2c2c" p-id="6367"></path></svg>