<?xml version="1.0" standalone="no"?><!DOCTYPE svg PUBLIC "-//W3C//DTD SVG 1.1//EN" "http://www.w3.org/Graphics/SVG/1.1/DTD/svg11.dtd"><svg t="1534294043626" class="icon" style="" viewBox="0 0 1024 1024" version="1.1" xmlns="http://www.w3.org/2000/svg" p-id="3431" xmlns:xlink="http://www.w3.org/1999/xlink" width="48" height="48"><defs><style type="text/css"></style></defs><path d="M834 163.5h-38.4V145c0-17.7-14.3-32-32-32s-32 14.3-32 32v18.6H292.4V145c0-17.7-14.3-32-32-32s-32 14.3-32 32v18.6H190c-68.9 0-125 56.1-125 125V786c0 68.9 56.1 125 125 125h644c68.9 0 125-56.1 125-125V288.5c0-68.9-56.1-125-125-125zM692 495.6L489.7 698c-6.2 6.2-14.4 9.4-22.6 9.4s-16.4-3.1-22.6-9.4L332 585.5c-12.5-12.5-12.5-32.8 0-45.3s32.8-12.5 45.3 0l89.9 89.9 179.7-179.7c12.5-12.5 32.8-12.5 45.3 0 12.3 12.5 12.3 32.8-0.2 45.2z m205.1-115H128v-64h769.1v64z" fill="#8e8e93" p-id="3432"></path></svg>