<?xml version="1.0" standalone="no"?><!DOCTYPE svg PUBLIC "-//W3C//DTD SVG 1.1//EN" "http://www.w3.org/Graphics/SVG/1.1/DTD/svg11.dtd"><svg t="1534294484938" class="icon" style="" viewBox="0 0 1024 1024" version="1.1" xmlns="http://www.w3.org/2000/svg" p-id="23557" xmlns:xlink="http://www.w3.org/1999/xlink" width="48" height="48"><defs><style type="text/css"></style></defs><path d="M928 427a52.26 52.26 0 0 0-1.59-11.6 49.48 49.48 0 0 0-81.51-25.12c-0.53 0.47-1.08 0.88-1.59 1.38l-1.08 1.08c-0.37 0.39-0.68 0.81-1 1.21l-27.75 27.73-52.21 52.17-55.78 55.75L649 586l-54.13 54.1-48.94 48.9-40.81 40.8-29.75 29.73-8.49 8.47a35.35 35.35 0 0 1-9.8 7.29 17.65 17.65 0 0 1-7.4 1.72H260.81A11.83 11.83 0 0 1 249 765.19V587.14v-10.82a17.65 17.65 0 0 1 1.72-7.4 35.38 35.38 0 0 1 7.29-9.8l8.48-8.49 29.73-29.75L337 480.07l48.91-48.94L440 377l56.39-56.43 55.75-55.78 52.17-52.21 27.73-27.75c0.41-0.32 0.82-0.64 1.21-1l1.08-1.08c0.5-0.52 0.91-1.07 1.38-1.6a49.93 49.93 0 0 0-25.12-81.51A52.2 52.2 0 0 0 599 98H205.32c-1.82 0-3.63 0.06-5.43 0.15h-0.06q-2.59 0.13-5.15 0.39l-0.74 0.08q-2.24 0.24-4.46 0.57l-0.88 0.14q-2.2 0.35-4.38 0.78l-0.73 0.15q-2.42 0.5-4.81 1.11h-0.15q-3.72 1-7.33 2.18l-0.3 0.1c-2.2 0.75-4.37 1.58-6.5 2.46q-2.2 0.91-4.34 1.91l-0.78 0.35h-0.07q-2.49 1.19-4.91 2.51l-0.45 0.24-0.9 0.52c-1.27 0.71-2.53 1.44-3.77 2.2-0.74 0.46-1.46 0.93-2.19 1.4s-1.63 1.06-2.42 1.61-1.61 1.13-2.4 1.7-1.4 1-2.09 1.57-1.66 1.28-2.47 1.94c-0.58 0.47-1.14 1-1.71 1.44s-1.41 1.2-2.1 1.82l-1.3 1.19-0.18 0.17q-1 1-2 1.93l-1.39 1.38-0.52 0.55c-1.07 1.1-2.12 2.22-3.14 3.36q-0.81 0.92-1.6 1.85l-0.19 0.22q-1.4 1.65-2.72 3.36c-0.39 0.5-0.79 1-1.16 1.48-0.18 0.24-0.35 0.48-0.52 0.72q-1.48 2-2.87 4.08l-0.88 1.33-0.51 0.79q-1.38 2.17-2.66 4.41l-0.33 0.57c-0.26 0.46-0.51 0.93-0.76 1.39-0.89 1.63-1.74 3.29-2.55 5l-0.27 0.56-0.32 0.71c-0.7 1.51-1.34 3.06-2 4.61-0.51 1.26-1 2.54-1.46 3.82-0.55 1.52-1.1 3-1.58 4.58-0.13 0.41-0.25 0.82-0.37 1.24-0.65 2.19-1.26 4.4-1.77 6.64-0.38 1.67-0.71 3.35-1 5-0.08 0.44-0.16 0.87-0.23 1.31-0.23 1.37-0.42 2.76-0.6 4.15-0.08 0.61-0.17 1.22-0.23 1.83-0.13 1.15-0.21 2.32-0.3 3.49-0.06 0.83-0.14 1.65-0.19 2.49-0.1 1.88-0.17 3.76-0.17 5.67V820.6c0 0.71 0 1.4 0.06 2.1 0 0.92 0 1.85 0.08 2.77v0.81c0 0.88 0.13 1.75 0.2 2.62 0 0.36 0.06 0.71 0.09 1.07 0.06 0.66 0.1 1.32 0.17 2v0.29c0.07 0.63 0.16 1.26 0.24 1.89 0 0.2 0.06 0.4 0.09 0.59 0.16 1.17 0.31 2.33 0.5 3.48 0.07 0.44 0.16 0.88 0.24 1.33 0 0.15 0.06 0.29 0.09 0.44 0.23 1.26 0.48 2.51 0.75 3.75 0 0.11 0 0.22 0.07 0.33s0.07 0.34 0.1 0.51c0.51 2.24 1.12 4.45 1.77 6.63 0.12 0.42 0.24 0.83 0.37 1.25 0.48 1.53 1 3 1.57 4.54 0.44 1.22 0.89 2.44 1.38 3.64 0.65 1.61 1.32 3.22 2 4.8l0.32 0.71 0.07 0.15 0.05 0.12q1.4 3 3 5.8l0.37 0.65 0.11 0.21 0.33 0.57q1.27 2.23 2.65 4.39l0.53 0.82 0.27 0.41 0.62 0.93c1 1.54 2.08 3.06 3.19 4.54l0.12 0.16 0.07 0.1c0.38 0.5 0.78 1 1.17 1.48q1.33 1.7 2.72 3.35l0.16 0.19q0.8 0.94 1.62 1.87 1.52 1.71 3.12 3.34l0.52 0.54 0.6 0.6 0.58 0.59c0.69 0.67 1.38 1.33 2.08 2l0.25 0.24 0.49 0.44 0.71 0.65c0.72 0.65 1.46 1.27 2.19 1.9l0.15 0.13 0.3 0.26 0.32 0.27 0.72 0.62q1.75 1.44 3.56 2.8l0.08 0.06 0.26 0.2c0.41 0.31 0.84 0.59 1.25 0.89l0.46 0.33c0.6 0.43 1.2 0.87 1.82 1.29l0.11 0.07c0.57 0.39 1.14 0.76 1.72 1.13l0.44 0.29c0.57 0.37 1.14 0.74 1.71 1.1l0.13 0.08 0.67 0.43 0.69 0.41 0.74 0.42 0.2 0.12 1.64 0.94 0.18 0.1 0.86 0.5 0.93 0.5 0.45 0.23 0.17 0.09 1.52 0.78 0.31 0.16 1.12 0.57 0.93 0.45 0.28 0.13 0.16 0.08 1.15 0.52 0.26 0.11c0.67 0.3 1.33 0.62 2 0.91l0.67 0.29c0.47 0.2 1 0.35 1.44 0.54 1.21 0.49 2.43 0.94 3.66 1.38 0.95 0.34 1.89 0.7 2.85 1l0.3 0.11 0.55 0.19c1.13 0.36 2.28 0.69 3.43 1l1.23 0.35 0.57 0.14 0.7 0.21h0.15c0.48 0.12 1 0.22 1.45 0.33l0.46 0.12 0.74 0.19 0.52 0.1 0.34 0.07c0.44 0.1 0.86 0.21 1.3 0.3l0.74 0.15c0.56 0.11 1.13 0.2 1.7 0.3l0.47 0.09 1.33 0.24h0.29l0.59 0.11 0.88 0.14c0.57 0.08 1.15 0.14 1.72 0.22l0.63 0.09c0.63 0.08 1.26 0.17 1.89 0.24h0.31l0.64 0.07 1.34 0.1 1.08 0.09c0.87 0.07 1.74 0.15 2.62 0.2 0.73 0 1.47 0 2.2 0.06 1.16 0 2.31 0.1 3.47 0.1H820.6c1.91 0 3.8-0.06 5.68-0.16 0.87 0 1.73-0.13 2.6-0.2l1.08-0.09c0.77-0.06 1.55-0.12 2.32-0.2s1.26-0.16 1.89-0.24l1.33-0.19c0.94-0.13 1.88-0.25 2.8-0.4l1.3-0.23c1.7-0.31 3.39-0.63 5.05-1 2.25-0.52 4.45-1.12 6.63-1.77l1.26-0.37c1.52-0.47 3-1 4.49-1.55s2.84-1.05 4.23-1.63 2.86-1.17 4.25-1.81l0.74-0.33 0.6-0.3c1.67-0.8 3.31-1.64 4.93-2.52l1.39-0.76 0.58-0.34q2.22-1.27 4.38-2.64l0.81-0.52 1.35-0.89q2.06-1.38 4-2.84l0.74-0.54c0.51-0.38 1-0.79 1.5-1.18q1.69-1.32 3.32-2.7l0.23-0.2q0.94-0.8 1.87-1.62c1.12-1 2.21-2 3.29-3.07l0.59-0.57c0.47-0.46 0.92-0.92 1.38-1.39q1-1 1.9-2l0.22-0.23 1.18-1.29c0.62-0.69 1.22-1.39 1.81-2.09s1-1.14 1.45-1.72c0.67-0.82 1.31-1.65 2-2.49q0.78-1 1.54-2.06 0.88-1.2 1.73-2.43c0.54-0.78 1.06-1.57 1.57-2.37s1-1.49 1.44-2.24c0.76-1.23 1.48-2.49 2.19-3.75 0.17-0.3 0.35-0.6 0.52-0.9l0.24-0.44q1.31-2.41 2.5-4.9v-0.09c0.13-0.27 0.24-0.54 0.36-0.8q1-2.14 1.9-4.32c0.88-2.14 1.71-4.3 2.46-6.5l0.1-0.3c0.73-2.18 1.38-4.41 2-6.65 0.1-0.38 0.21-0.76 0.31-1.14 0.37-1.48 0.72-3 1-4.49 0.05-0.24 0.1-0.49 0.15-0.74q0.43-2.17 0.78-4.38c0-0.29 0.09-0.59 0.14-0.88q0.33-2.22 0.57-4.46c0-0.25 0.06-0.49 0.08-0.74q0.25-2.56 0.39-5.15v-0.06c0.09-1.82 0.15-3.65 0.15-5.5V427.39c0.11-0.14 0.11-0.27 0.11-0.39z" p-id="23558" fill="#2196f3"></path><path d="M605.71 312.7L582 336.55l-23.85 24-23.79 23.94-23.51 23.66-23 23.15-22.28 22.42-21.33 21.47-20.17 20.3-18.78 18.9-17.17 17.28-15.35 15.44-13.3 13.38-11 11.1-8.54 8.6-5.83 5.87a10.09 10.09 0 0 0-3.2 7.35v86.8a16.59 16.59 0 0 0 16.59 16.62c1.77 0 83.32 0.33 86.18 0.3 5.39 0 9.25-4.35 12.87-8l13.3-13.32L478.61 657l23.54-23.57 27.52-27.56 30.73-30.77 33.2-33.25 34.91-35L664.37 471l36-36.09 35.47-35.52 34.16-34.2 32-32.09 29.2-29.24 12.8-12.72 12.89-12.9L878.07 257l16.1-16.12 10.22-10.23L908 227a68.56 68.56 0 0 0 0-96.88l-12.11-12.11a68.33 68.33 0 0 0-96.72 0l-1.59 1.6-4.61 4.64-7.41 7.46-10 10.06-12.36 12.44-10.53 10.6-4 4-16.42 16.53-18.14 18.26-19.6 19.73-20.86 21-21.9 22-22.75 22.9z" p-id="23559" fill="#2196f3"></path></svg>