<?xml version="1.0" standalone="no"?><!DOCTYPE svg PUBLIC "-//W3C//DTD SVG 1.1//EN" "http://www.w3.org/Graphics/SVG/1.1/DTD/svg11.dtd"><svg t="1534293688176" class="icon" style="" viewBox="0 0 1024 1024" version="1.1" xmlns="http://www.w3.org/2000/svg" p-id="2632" xmlns:xlink="http://www.w3.org/1999/xlink" width="48" height="48"><defs><style type="text/css"></style></defs><path d="M889.842499 136.468464H134.157501c-47.435562 0-86.23542 38.799857-86.23542 86.23542v581.632973c0 47.435562 38.799857 86.23542 86.23542 86.23542h755.684998c47.435562 0 86.23542-38.799857 86.23542-86.23542V222.703884c0-47.435562-38.799857-86.23542-86.23542-86.23542zM266.368927 463.287326v99.128163H201.540325v-99.128163h64.828602z m-64.828602-56.557786v-85.140753h64.828602v85.140753H201.540325zM266.368927 619.094904v86.35705H201.540325v-86.35705h64.828602z m53.395416 86.35705V321.710417h382.038721V705.451954H319.764343z m502.695332-86.35705v86.35705h-67.261195v-86.35705h67.261195z m-67.139566-56.557786V463.408956h67.261195v99.128162h-67.261195z m67.139566-155.807578h-67.261195v-85.140753h67.261195v85.140753z" p-id="2633" fill="#e91e63"></path><path d="M618.486756 506.95237l-179.16047-93.776458c-3.040741-1.581185-6.93289-1.702815-10.216891-0.364889-3.162371 1.337926-5.230075 4.013778-5.230074 6.93289v187.674545c0 2.919112 2.067704 5.594964 5.230074 6.93289 1.459556 0.608148 3.040741 0.973037 4.743557 0.973037 1.946074 0 3.892149-0.486519 5.473334-1.337926l179.16047-93.776458c2.797482-1.459556 4.378667-3.892149 4.378667-6.446371 0.12163-2.919112-1.581185-5.351704-4.378667-6.81126z" p-id="2634" fill="#e91e63"></path></svg>