<?xml version="1.0" standalone="no"?><!DOCTYPE svg PUBLIC "-//W3C//DTD SVG 1.1//EN" "http://www.w3.org/Graphics/SVG/1.1/DTD/svg11.dtd"><svg t="1531985709208" class="icon" style="" viewBox="0 0 1024 1024" version="1.1" xmlns="http://www.w3.org/2000/svg" p-id="1935" xmlns:xlink="http://www.w3.org/1999/xlink" width="24" height="24"><defs><style type="text/css"></style></defs><path d="M279.3984 280.4736c-11.3152 0-22.5792 4.608-30.5152 12.5952S236.288 312.2176 236.288 323.6352c0 11.264 4.608 22.528 12.5952 30.5152 7.9872 7.8848 19.2 12.544 30.5152 12.544 11.264 0 22.528-4.6592 30.464-12.5952C317.9008 346.112 322.5088 334.848 322.5088 323.6352c0-11.4176-4.608-22.528-12.5952-30.5152C301.9264 285.0816 290.6624 280.4736 279.3984 280.4736zM605.952 512.8192c-8.8576 0-17.6128 3.6352-23.8592 9.8816-6.2464 6.1952-9.9328 14.9504-9.9328 23.8592 0 8.9088 3.6352 17.6128 9.8816 23.8592s15.104 9.8816 23.9616 9.8816 17.6128-3.6352 23.8592-9.8816c6.2464-6.1952 9.8816-14.9504 9.8816-23.8592 0-8.9088-3.6352-17.6128-9.8816-23.8592C623.616 516.4032 614.7072 512.8192 605.952 512.8192zM499.4048 366.6944c11.264 0 22.528-4.6592 30.5152-12.5952 7.936-7.9872 12.544-19.2512 12.544-30.5152 0-11.4176-4.608-22.528-12.544-30.5152-8.0384-7.936-19.3536-12.544-30.5152-12.544-11.3152 0-22.528 4.608-30.5152 12.5952S456.2944 312.2176 456.2944 323.6352c0 11.264 4.608 22.528 12.5952 30.5152C476.8768 362.0352 488.0896 366.6944 499.4048 366.6944zM858.0096 0 165.9392 0C74.24 0 0 74.496 0 166.4512l0 691.0976C0 949.504 74.24 1024 165.9392 1024l692.1728 0C949.76 1024 1024 949.504 1024 857.5488L1024 166.4512C1023.9488 74.496 949.6576 0 858.0096 0zM384.256 686.0288c-38.7072 0-69.9392-7.936-108.7488-15.5648l-108.4928 54.3744 31.0272-93.3888C120.32 577.1776 73.8816 507.2384 73.8816 422.0416c0-147.7632 139.8272-263.9872 310.4768-263.9872 152.6784 0 286.4128 92.8768 313.1904 217.9584-9.8816-1.1776-19.8656-1.8432-29.9008-1.8432-147.5072 0-263.936 110.08-263.936 245.6064 0 22.6816 3.5328 44.288 9.5232 65.0752C403.6608 685.5168 393.984 686.0288 384.256 686.0288zM842.1376 794.7776l23.3472 77.5168-85.1456-46.6432c-31.0272 7.7824-62.2592 15.616-93.184 15.616-147.6608 0-263.9872-100.9152-263.9872-225.28 0-124.1088 116.3264-225.28 263.9872-225.28 139.52 0 263.7312 101.12 263.7312 225.28C950.8864 686.0288 904.4992 747.9808 842.1376 794.7776zM775.0656 512.8192c-8.8576 0-17.6128 3.6352-23.8592 9.8816-6.2976 6.1952-9.8816 14.9504-9.8816 23.8592 0 8.9088 3.6352 17.6128 9.8816 23.8592 6.1952 6.2464 15.0528 9.8816 23.8592 9.8816 8.8064 0 17.6128-3.6352 23.8592-9.8816 6.2976-6.1952 9.8816-14.9504 9.8816-23.8592 0-8.9088-3.6352-17.6128-9.8816-23.8592C792.7296 516.4032 783.872 512.8192 775.0656 512.8192z" p-id="1936" fill="#2aa515"></path></svg>