<?xml version="1.0" standalone="no"?><!DOCTYPE svg PUBLIC "-//W3C//DTD SVG 1.1//EN" "http://www.w3.org/Graphics/SVG/1.1/DTD/svg11.dtd"><svg t="1534294781787" class="icon" style="" viewBox="0 0 1038 1024" version="1.1" xmlns="http://www.w3.org/2000/svg" p-id="33773" xmlns:xlink="http://www.w3.org/1999/xlink" width="24" height="24"><defs><style type="text/css"></style></defs><path d="M518.871398 0.011085c-278.45965 0-504.196426 225.736776-504.196427 504.196427s225.736776 504.196426 504.196427 504.196426 504.196426-225.736776 504.196426-504.196426S797.331048 0.011085 518.871398 0.011085zM411.446414 325.663033c0-59.274308 48.050908-107.634597 107.303045-107.634597s107.303045 48.360289 107.303045 107.634597v143.601479c0 59.517178-48.050908 107.612427-107.303045 107.612426s-107.303045-48.095249-107.303045-107.612426V325.663033zM715.262262 478.631622c0 99.769046-73.744705 181.998065-169.604658 194.988065v65.017521h89.187588c14.82412 0 26.931324 12.062863 26.931324 26.864812 0 14.82412-12.106196 26.931324-26.931324 26.931324H402.653726c-14.82412 0-26.931324-12.106196-26.931324-26.931324 0-14.801949 12.106196-26.864812 26.931324-26.864812h89.187588v-65.017521c-95.859953-12.991008-169.604658-95.219019-169.604658-194.988065v-0.331552c0-14.801949 12.106196-26.863804 26.886982-26.863804 14.82412 0 26.598764 12.061855 26.598764 26.863804 0 79.246055 64.090383 143.601479 143.027057 143.601479s143.027057-64.355424 143.027057-143.601479c0-14.801949 11.774644-26.863804 26.598764-26.863804 14.779778 0 26.886983 12.061855 26.886982 26.863804v0.331552z" p-id="33774" fill="#f44336"></path></svg>